<?xml version="1.0" encoding="utf-8"?>
<!-- Generator: Adobe Illustrator 23.0.3, SVG Export Plug-In . SVG Version: 6.00 Build 0)  -->
<svg version="1.1" id="Layer_1" xmlns="http://www.w3.org/2000/svg" xmlns:xlink="http://www.w3.org/1999/xlink" x="0px" y="0px"
	 viewBox="0 0 443.2 206" style="enable-background:new 0 0 443.2 206;" xml:space="preserve">
<style type="text/css">
	.st0{fill:none;}
	.st1{fill:#B0DE00;}
</style>
<title>estoque01-ico01</title>
<g id="Capa_2">
	<g>
		<rect y="0" class="st0" width="443.2" height="206"/>
		<polygon class="st1" points="159,67.9 144.8,108.5 168.4,108.5 159,139 196.9,93.3 173.2,93.3 187.4,67.9 		"/>
		<path class="st1" d="M223.5,122.4h-10.6l9-41.1H252l-2,9.2h-19.5l-1.3,6.4h19l-2,9.2h-19.1L223.5,122.4z M274.7,123.1
			c-12.6,0-18.8-6-18.8-14.7c0-0.9,0.1-1.8,0.3-2.7l5.4-24.4h10.8l-5.4,24.2c-0.1,0.6-0.2,1.1-0.2,1.7c0.1,3.4,2.6,6.7,7.9,6.7
			c5.7,0,8.6-3.6,9.6-8.4l5.4-24.2h10.8l-5.4,24.4C292.8,115.7,287.4,123.1,274.7,123.1 M329.4,122.4h-27l9-41.1H322l-7,31.8h16.4
			L329.4,122.4z M365.5,122.4h-27l9-41.1h10.6l-7,31.8h16.4L365.5,122.4z"/>
	</g>
</g>
</svg>
