<svg id="Layer_1" enable-background="new 0 0 512 512" height="512" viewBox="0 0 512 512" width="512" xmlns="http://www.w3.org/2000/svg"><g id="XMLID_2335_"><g id="XMLID_3038_"><path id="XMLID_2712_" d="m442.502 136.014h-1.752-364.833-6.425c-20.708 0-37.495 16.787-37.495 37.494v252.492h448v-252.491c0-20.708-16.787-37.495-37.495-37.495z" fill="#f9f6f4"/><path id="XMLID_2708_" d="m324.142 426h177.858c0 30.928-25.072 56-56 56h-380c-30.928 0-56-25.072-56-56h177.847z" fill="#9b98e7"/><g id="XMLID_2778_"><path id="XMLID_2791_" d="m502 177.187v-46.374h-20.203c-2.713-12.188-7.514-23.589-14.014-33.805l14.294-14.294-32.791-32.791-14.298 14.297c-10.215-6.497-21.615-11.295-33.801-14.005v-20.215h-46.374v20.215c-12.187 2.71-23.586 7.508-33.801 14.005l-14.297-14.297-32.791 32.791 14.294 14.294c-6.5 10.216-11.301 21.616-14.014 33.805h-20.204v46.374h20.197c2.71 12.192 7.509 23.597 14.008 33.816l-14.282 14.282 32.791 32.791 14.279-14.279c10.22 6.503 21.626 11.305 33.82 14.017v20.186h46.374v-20.185c12.194-2.712 23.6-7.514 33.82-14.017l14.279 14.279 32.791-32.791-14.282-14.282c6.499-10.22 11.299-21.624 14.008-33.816h20.197z" fill="#ffec80"/><path id="XMLID_2786_" d="m378 210.015c-30.928 0-56-25.072-56-56s25.072-56 56-56 56 25.072 56 56-25.072 56-56 56z" fill="#fff"/></g><path id="XMLID_2932_" d="m115.997 333.156h-16c-11.046 0-20-8.954-20-20 0-11.046 8.954-20 20-20h16c11.046 0 20 8.954 20 20 0 11.046-8.954 20-20 20z" fill="#9b98e7"/><path id="XMLID_2931_" d="m175.997 225.95h16c11.046 0 20 8.954 20 20 0 11.046-8.954 20-20 20h-16c-11.046 0-20-8.954-20-20 0-11.046 8.954-20 20-20z" fill="#9b98e7"/><g fill="#91d9b9"><path id="XMLID_2853_" d="m239.997 337.667h56v40h-56z"/><path id="XMLID_2852_" d="m343.997 337.667h56v40h-56z"/></g></g><g id="XMLID_844_"><path id="XMLID_869_" d="m502 187.187c5.523 0 10-4.478 10-10v-46.374c0-5.522-4.477-10-10-10h-12.472c-2.288-7.706-5.366-15.132-9.204-22.202l8.824-8.824c1.875-1.875 2.929-4.419 2.929-7.071s-1.054-5.195-2.929-7.071l-32.792-32.792c-3.906-3.903-10.237-3.904-14.142 0l-8.83 8.829c-7.07-3.835-14.495-6.912-22.198-9.198v-12.484c0-5.522-4.477-10-10-10h-46.374c-5.523 0-10 4.478-10 10v12.482c-7.704 2.286-15.128 5.363-22.198 9.198l-8.83-8.829c-3.905-3.904-10.237-3.904-14.142 0l-32.791 32.792c-1.875 1.876-2.929 4.419-2.929 7.071s1.054 5.196 2.929 7.071l8.824 8.824c-3.838 7.07-6.917 14.496-9.205 22.202h-12.47c-3.783 0-7.075 2.102-8.773 5.201h-175.736c-26.188 0-47.494 21.307-47.494 47.495v242.493h-11.997c-5.523 0-10 4.478-10 10 0 36.393 29.607 66 66 66h380c36.393 0 66-29.607 66-66 0-5.522-4.477-10-10-10h-12.003v-184.624c3.022-3.922 2.746-9.568-.849-13.162l-8.814-8.813c3.839-7.075 6.917-14.504 9.203-22.214zm-201.003 228.813c-5.523 0-10 4.478-10 10s4.477 10 10 10h189.908c-4.579 20.571-22.975 36-44.905 36h-380c-21.931 0-40.327-15.429-44.905-36h189.902c5.523 0 10-4.478 10-10s-4.477-10-10-10h-169v-242.491c0-15.161 12.334-27.495 27.494-27.495h174.509v31.173c0 5.522 4.477 10 10 10h12.463c2.287 7.71 5.364 15.139 9.203 22.214l-8.814 8.813c-3.905 3.905-3.905 10.237 0 14.143l32.791 32.792c1.875 1.875 4.419 2.929 7.071 2.929s5.196-1.054 7.071-2.929l8.81-8.811c7.076 3.842 14.507 6.922 22.218 9.21v12.452c0 5.522 4.477 10 10 10h46.374c5.523 0 10-4.478 10-10v-12.452c7.71-2.288 15.142-5.368 22.218-9.21l8.81 8.811c1.875 1.875 4.419 2.929 7.071 2.929s5.196-1.054 7.071-2.929l13.64-13.64v164.491zm171.045-240.982c-2.42 10.889-6.688 21.19-12.685 30.618-2.515 3.954-1.947 9.125 1.367 12.438l7.211 7.211-18.649 18.649-7.208-7.208c-3.314-3.314-8.485-3.882-12.439-1.365-9.431 6-19.734 10.271-30.623 12.692-4.575 1.018-7.829 5.075-7.829 9.762v10.185h-26.374v-10.185c0-4.687-3.254-8.744-7.829-9.762-10.888-2.421-21.191-6.692-30.623-12.692-3.955-2.517-9.125-1.949-12.439 1.365l-7.208 7.208-18.649-18.649 7.211-7.211c3.313-3.313 3.881-8.484 1.367-12.438-5.997-9.428-10.265-19.729-12.685-30.618-1.017-4.576-5.075-7.831-9.762-7.831h-10.196v-26.374h10.203c4.686 0 8.743-3.254 9.761-7.827 2.423-10.886 6.692-21.184 12.689-30.609 2.516-3.954 1.948-9.125-1.366-12.439l-7.222-7.222 18.649-18.649 7.226 7.226c3.313 3.313 8.482 3.881 12.437 1.367 9.426-5.994 19.723-10.261 30.606-12.682 4.574-1.018 7.829-5.075 7.829-9.762v-10.216h26.374v10.215c0 4.687 3.254 8.744 7.829 9.762 10.883 2.421 21.181 6.688 30.606 12.682 3.954 2.515 9.124 1.944 12.437-1.367l7.227-7.227 18.649 18.65-7.223 7.222c-3.314 3.314-3.882 8.485-1.366 12.439 5.997 9.426 10.267 19.724 12.689 30.609 1.018 4.573 5.076 7.827 9.761 7.827h10.205v26.374h-10.197c-4.687.001-8.745 3.255-9.761 7.832z"/><path id="XMLID_1147_" d="m378 88.015c-36.393 0-66 29.607-66 66s29.607 66 66 66 66-29.607 66-66-29.607-66-66-66zm0 112c-25.364 0-46-20.636-46-46s20.636-46 46-46 46 20.636 46 46-20.636 46-46 46z"/><path id="XMLID_1150_" d="m117.997 283.23v-97.407c0-5.522-4.477-10-10-10s-10 4.478-10 10v97.407c-15.612 1.034-28 14.057-28 29.926s12.388 28.892 28 29.926v33.109c0 5.522 4.477 10 10 10s10-4.478 10-10v-33.109c15.612-1.033 28-14.057 28-29.926s-12.388-28.892-28-29.926zm-2 39.926h-16c-5.514 0-10-4.486-10-10s4.486-10 10-10h16c5.514 0 10 4.486 10 10s-4.486 10-10 10z"/><path id="XMLID_1163_" d="m193.997 216.024v-30.201c0-5.522-4.477-10-10-10s-10 4.478-10 10v30.201c-15.612 1.033-28 14.057-28 29.926s12.388 28.893 28 29.926v100.315c0 5.522 4.477 10 10 10s10-4.478 10-10v-100.315c15.612-1.034 28-14.057 28-29.926s-12.388-28.892-28-29.926zm-2 39.926h-16c-5.514 0-10-4.486-10-10s4.486-10 10-10h16c5.514 0 10 4.486 10 10s-4.486 10-10 10z"/><path id="XMLID_1167_" d="m295.997 327.667h-56c-5.523 0-10 4.478-10 10v40c0 5.522 4.477 10 10 10h56c5.523 0 10-4.478 10-10v-40c0-5.522-4.477-10-10-10zm-10 40h-36v-20h36z"/><path id="XMLID_1715_" d="m399.997 327.667h-56c-5.523 0-10 4.478-10 10v40c0 5.522 4.477 10 10 10h56c5.523 0 10-4.478 10-10v-40c0-5.522-4.477-10-10-10zm-10 40h-36v-20h36z"/><path id="XMLID_1716_" d="m256 416c-2.63 0-5.21 1.069-7.07 2.93-1.86 1.86-2.93 4.44-2.93 7.07s1.07 5.21 2.93 7.069c1.86 1.86 4.44 2.931 7.07 2.931s5.21-1.07 7.07-2.931c1.86-1.859 2.93-4.439 2.93-7.069s-1.07-5.21-2.93-7.07-4.44-2.93-7.07-2.93z"/></g></g></svg>